<svg xmlns="http://www.w3.org/2000/svg" version="1.1" xmlns:xlink="http://www.w3.org/1999/xlink" xmlns:svgjs="http://svgjs.dev/svgjs" width="1500" height="1500" viewBox="0 0 1500 1500"><rect width="1500" height="1500" fill="#000000"></rect><g transform="matrix(0.6666666666666666,0,0,0.6666666666666666,248.8395102040816,242.36774193548388)"><svg viewBox="0 0 245 248" data-background-color="#ffffff" preserveAspectRatio="xMidYMid meet" height="1518" width="1500" xmlns="http://www.w3.org/2000/svg" xmlns:xlink="http://www.w3.org/1999/xlink"><g id="tight-bounds" transform="matrix(1,0,0,1,0.2843200000000081,0.4000000000000057)"><svg viewBox="0 0 244.43135999999998 247.2" height="247.2" width="244.43135999999998"><g><svg></svg></g><g><svg viewBox="0 0 244.43135999999998 247.2" height="247.2" width="244.43135999999998"><g transform="matrix(1,0,0,1,0,87.57943205823003)"><svg viewBox="0 0 244.43135999999998 72.04113588353992" height="72.04113588353992" width="244.43135999999998"><g><svg viewBox="0 0 244.43135999999998 72.04113588353992" height="72.04113588353992" width="244.43135999999998"><g transform="matrix(1,0,0,1,0,44.52431212306088)"><svg viewBox="0 0 244.43135999999998 27.51682376047904" height="27.51682376047904" width="244.43135999999998"><g id="textblocktransform"><svg viewBox="0 0 244.43135999999998 27.51682376047904" height="27.51682376047904" width="244.43135999999998" id="textblock"><g><svg viewBox="0 0 244.43135999999998 27.51682376047904" height="27.51682376047904" width="244.43135999999998"><g transform="matrix(1,0,0,1,0,0)"><svg width="244.43135999999998" viewBox="0.5 -37 333.97 37.6" height="27.51682376047904" data-palette-color="#d7dbde"><path d="M17.4 0L12.65 0 12.65-13.3 0.5-33.05 4.5-35.45 15.2-17.7 25.7-35.25 29.45-33.05 17.4-13.3 17.4 0ZM54.65 0L34.35 0Q34.2-0.9 34.2-1.85L34.2-1.85Q34.2-5.1 35.32-7.68 36.45-10.25 38.25-12.38 40.05-14.5 42.07-16.32 44.1-18.15 45.87-19.83 47.65-21.5 48.8-23.2 49.95-24.9 49.95-26.75L49.95-26.75Q49.95-28.85 48.4-30.23 46.85-31.6 44.4-31.6L44.4-31.6Q42.3-31.6 40.57-30.78 38.85-29.95 37.35-28.55L37.35-28.55 34.85-31.6Q36.85-33.4 39.27-34.5 41.7-35.6 44.9-35.6L44.9-35.6Q47.85-35.6 50.05-34.48 52.25-33.35 53.47-31.4 54.7-29.45 54.7-27.05L54.7-27.05Q54.7-24.65 53.65-22.6 52.6-20.55 50.95-18.75 49.3-16.95 47.4-15.28 45.5-13.6 43.75-11.85 42-10.1 40.77-8.2 39.55-6.3 39.25-4.1L39.25-4.1 54.65-4.1 54.65 0ZM72.45 0.6L72.45 0.6Q70.2 0.6 68.2-0.35 66.2-1.3 64.95-3.43 63.7-5.55 63.7-9.1L63.7-9.1 63.7-26 68.2-26 68.2-9.7Q68.2-6.65 69.5-5.03 70.8-3.4 73.3-3.4L73.3-3.4Q75.35-3.4 77.27-4.23 79.2-5.05 80.7-6.45L80.7-6.45 80.7-26 85.2-26 85.2-6.75Q85.2-4.6 86.12-3.93 87.05-3.25 88.15-3.25L88.15-3.25 87.2 0.25Q82.55 0.25 81.45-3.45L81.45-3.45Q79.7-1.65 77.4-0.53 75.1 0.6 72.45 0.6ZM105.84 0.6L105.84 0.6Q103.59 0.6 101.62-0.23 99.64-1.05 98.34-2.15L98.34-2.15 98.34 0 94.14 0 94.14-37 98.64-37 98.64-23.3Q99.64-24.45 101.57-25.53 103.49-26.6 106.14-26.6L106.14-26.6Q109.14-26.6 111.77-25.03 114.39-23.45 115.99-20.48 117.59-17.5 117.59-13.25L117.59-13.25Q117.59-10.15 116.59-7.6 115.59-5.05 113.92-3.23 112.24-1.4 110.14-0.4 108.04 0.6 105.84 0.6ZM104.64-3.4L104.64-3.4Q107.09-3.4 108.97-4.6 110.84-5.8 111.92-8 112.99-10.2 112.99-13.1L112.99-13.1Q112.99-16.1 111.92-18.25 110.84-20.4 109.07-21.55 107.29-22.7 105.14-22.7L105.14-22.7Q102.99-22.7 101.27-21.63 99.54-20.55 98.64-19.3L98.64-19.3 98.64-5.4Q99.79-4.5 101.34-3.95 102.89-3.4 104.64-3.4ZM134.24 0.6L134.24 0.6Q128.64 0.6 125.37-2.98 122.09-6.55 122.09-13L122.09-13Q122.09-16.9 123.57-19.98 125.04-23.05 127.69-24.83 130.34-26.6 133.84-26.6L133.84-26.6Q137.59-26.6 140.07-24.98 142.54-23.35 143.79-20.6 145.04-17.85 145.04-14.55L145.04-14.55Q145.04-12.8 144.89-11.15L144.89-11.15 126.69-11.15Q127.14-7.5 129.24-5.45 131.34-3.4 134.79-3.4L134.79-3.4Q137.04-3.4 138.84-3.88 140.64-4.35 142.29-5.1L142.29-5.1 143.34-1.25Q141.54-0.45 139.29 0.08 137.04 0.6 134.24 0.6ZM126.64-14.8L126.64-14.8 140.89-14.8Q140.89-18.6 138.99-20.65 137.09-22.7 133.74-22.7L133.74-22.7Q130.84-22.7 128.94-20.68 127.04-18.65 126.64-14.8ZM164.99 0.6L164.99 0.6Q160.44 0.6 156.94-1.58 153.44-3.75 151.49-7.78 149.54-11.8 149.54-17.35L149.54-17.35Q149.54-22.7 151.51-26.83 153.49-30.95 157.11-33.27 160.74-35.6 165.59-35.6L165.59-35.6Q168.09-35.6 170.14-35.13 172.19-34.65 173.99-33.8L173.99-33.8 172.54-29.8Q170.99-30.55 169.36-31 167.74-31.45 165.54-31.45L165.54-31.45Q162.34-31.45 159.81-29.8 157.29-28.15 155.84-25.05 154.39-21.95 154.39-17.55L154.39-17.55Q154.39-13.35 155.81-10.2 157.24-7.05 159.76-5.3 162.29-3.55 165.54-3.55L165.54-3.55Q167.99-3.55 169.79-4.15 171.59-4.75 173.29-5.7L173.29-5.7 174.74-1.75Q172.89-0.75 170.51-0.08 168.14 0.6 164.99 0.6ZM190.19 0.6L190.19 0.6Q186.49 0.6 183.54-1.13 180.59-2.85 178.91-5.93 177.24-9 177.24-13L177.24-13Q177.24-17.2 178.94-20.25 180.64-23.3 183.59-24.95 186.54-26.6 190.19-26.6L190.19-26.6Q193.84-26.6 196.76-24.95 199.69-23.3 201.41-20.28 203.14-17.25 203.14-13.1L203.14-13.1Q203.14-8.95 201.44-5.88 199.74-2.8 196.81-1.1 193.89 0.6 190.19 0.6ZM190.19-3.4L190.19-3.4Q194.14-3.4 196.34-6.08 198.54-8.75 198.54-13L198.54-13Q198.54-15.6 197.44-17.78 196.34-19.95 194.46-21.28 192.59-22.6 190.19-22.6L190.19-22.6Q186.24-22.6 184.04-20 181.84-17.4 181.84-13.1L181.84-13.1Q181.84-10.5 182.94-8.28 184.04-6.05 185.91-4.73 187.79-3.4 190.19-3.4ZM213.63 0L209.13 0 209.13-26 213.48-26 213.48-21.65Q214.88-23.75 217.06-25.18 219.23-26.6 222.23-26.6L222.23-26.6Q226.63-26.6 228.81-23.95 230.98-21.3 230.98-16.95L230.98-16.95 230.98 0 226.48 0 226.48-16.45Q226.48-19.25 225.16-20.95 223.83-22.65 221.48-22.65L221.48-22.65Q219.18-22.65 217.13-21.03 215.08-19.4 213.63-17.2L213.63-17.2 213.63 0ZM243.23 0L238.73 0 238.73-26 243.08-26 243.08-21.65Q244.48-23.75 246.66-25.18 248.83-26.6 251.83-26.6L251.83-26.6Q256.23-26.6 258.41-23.95 260.58-21.3 260.58-16.95L260.58-16.95 260.58 0 256.08 0 256.08-16.45Q256.08-19.25 254.76-20.95 253.43-22.65 251.08-22.65L251.08-22.65Q248.78-22.65 246.73-21.03 244.68-19.4 243.23-17.2L243.23-17.2 243.23 0ZM278.73 0.6L278.73 0.6Q273.13 0.6 269.85-2.98 266.58-6.55 266.58-13L266.58-13Q266.58-16.9 268.05-19.98 269.53-23.05 272.18-24.83 274.83-26.6 278.33-26.6L278.33-26.6Q282.08-26.6 284.55-24.98 287.03-23.35 288.28-20.6 289.53-17.85 289.53-14.55L289.53-14.55Q289.53-12.8 289.38-11.15L289.38-11.15 271.18-11.15Q271.63-7.5 273.73-5.45 275.83-3.4 279.28-3.4L279.28-3.4Q281.53-3.4 283.33-3.88 285.13-4.35 286.78-5.1L286.78-5.1 287.83-1.25Q286.03-0.45 283.78 0.08 281.53 0.6 278.73 0.6ZM271.13-14.8L271.13-14.8 285.38-14.8Q285.38-18.6 283.48-20.65 281.58-22.7 278.23-22.7L278.23-22.7Q275.33-22.7 273.43-20.68 271.53-18.65 271.13-14.8ZM306.03 0.6L306.03 0.6Q302.33 0.6 299.55-1.13 296.78-2.85 295.28-5.93 293.78-9 293.78-13L293.78-13Q293.78-16.75 295.3-19.85 296.83-22.95 299.68-24.78 302.53-26.6 306.38-26.6L306.38-26.6Q308.58-26.6 310.25-26.2 311.93-25.8 313.48-25.05L313.48-25.05 312.13-21.25Q310.73-21.95 309.45-22.28 308.18-22.6 306.63-22.6L306.63-22.6Q303.13-22.6 300.75-20.08 298.38-17.55 298.38-13.1L298.38-13.1Q298.38-10.4 299.38-8.2 300.38-6 302.15-4.7 303.93-3.4 306.33-3.4L306.33-3.4Q308.23-3.4 309.58-3.83 310.93-4.25 312.48-5.05L312.48-5.05 313.88-1.25Q312.33-0.4 310.4 0.1 308.48 0.6 306.03 0.6ZM328.22 0.6L328.22 0.6Q324.47 0.6 322.3-1.88 320.12-4.35 320.12-8.95L320.12-8.95 320.12-21.15 315.62-21.15 315.62-25.05 320.22-25.05 321.17-33.25 324.62-33.25 324.62-25.05 331.82-25.05 331.82-21.15 324.62-21.15 324.62-8.6Q324.62-5.7 325.85-4.55 327.07-3.4 328.77-3.4L328.77-3.4Q330.02-3.4 331.15-3.8 332.27-4.2 333.22-4.75L333.22-4.75 334.47-1.15Q333.47-0.55 331.77 0.03 330.07 0.6 328.22 0.6Z" opacity="1" transform="matrix(1,0,0,1,0,0)" fill="#ffffff" class="wordmark-text-0" data-fill-palette-color="primary" id="text-0"></path></svg></g></svg></g></svg></g></svg></g><g transform="matrix(1,0,0,1,103.20155478150897,0)"><svg viewBox="0 0 38.028250436982034 38.028250436982034" height="38.028250436982034" width="38.028250436982034"><g><svg></svg></g><g id="icon-0"><svg viewBox="0 0 38.028250436982034 38.028250436982034" height="38.028250436982034" width="38.028250436982034"><g><path transform="scale(0.38028,0.38028)" d="M30 100c-16.569 0-30-13.431-30-30v-40c0-16.569 13.431-30 30-30h40c16.569 0 30 13.431 30 30v40c0 16.569-13.431 30-30 30z" fill="#ffffff" fill-rule="nonzero" stroke="none" stroke-width="1" stroke-linecap="butt" stroke-linejoin="miter" stroke-miterlimit="10" stroke-dasharray="" stroke-dashoffset="0" font-family="none" font-weight="none" font-size="none" text-anchor="none" style="mix-blend-mode: normal" data-fill-palette-color="accent"></path></g><g transform="matrix(1,0,0,1,7.606014295057912,7.605650087396407)"><svg viewBox="0 0 22.81622184686621 22.81695026218922" height="22.81695026218922" width="22.81622184686621"><g><svg xmlns="http://www.w3.org/2000/svg" xmlns:xlink="http://www.w3.org/1999/xlink" version="1.1" x="0" y="0" viewBox="5.0008999965395615 5.000454036311553 89.9978193491831 90.00069255891482" enable-background="new 0 0 100 100" xml:space="preserve" height="22.81695026218922" width="22.81622184686621" class="icon-dxe-0" data-fill-palette-color="quaternary" id="dxe-0"><g fill="#ffffff" data-fill-palette-color="quaternary"><path fill="#000000" d="M53.707 52.526L46.967 59.27 40.731 53.034 47.471 46.293A3.57 3.57 0 0 0 47.471 41.238 3.57 3.57 0 0 0 42.417 41.238L35.675 47.979 31.032 43.335C30.935 43.43 22.203 52.161 22.105 52.26 15.511 58.857 15.067 69.261 20.758 76.376L5.591 91.541A2.035 2.035 0 0 0 5.591 94.407 2.03 2.03 0 0 0 8.461 94.407L23.625 79.242C30.743 84.93 41.146 84.484 47.742 77.893 47.84 77.794 56.565 69.059 56.659 68.961L52.02 64.325 58.764 57.581A3.58 3.58 0 0 0 58.764 52.525 3.58 3.58 0 0 0 53.707 52.526" data-fill-palette-color="quaternary"></path><path fill="#000000" d="M94.404 5.593A2.023 2.023 0 0 0 91.543 5.593L76.375 20.76C69.262 15.069 58.855 15.514 52.263 22.108 52.165 22.206 43.438 30.94 43.342 31.039L47.98 35.676 53.708 29.947A3.58 3.58 0 0 1 58.766 29.947 3.58 3.58 0 0 1 58.766 35.002L53.035 40.732 59.27 46.965 65 41.236A3.577 3.577 0 0 1 70.054 41.236 3.58 3.58 0 0 1 70.054 46.295L64.325 52.024 68.97 56.666C69.068 56.571 77.795 47.84 77.893 47.741 84.491 41.148 84.935 30.74 79.241 23.625L94.404 8.46A2.025 2.025 0 0 0 94.404 5.593" data-fill-palette-color="quaternary"></path></g></svg></g></svg></g></svg></g></svg></g><g></g></svg></g></svg></g><path d="M0 81.579L0 1 244.431 1 244.431 81.579 241.95 81.579 241.95 3.481 2.481 3.481 2.481 81.579 0 81.579M0 165.621L0 246.2 244.431 246.2 244.431 165.621 241.95 165.621 241.95 243.719 2.481 243.719 2.481 165.621 0 165.621" fill="#ffffff" stroke="transparent" data-fill-palette-color="tertiary"></path></svg></g><defs></defs></svg><rect width="244.43135999999998" height="247.2" fill="none" stroke="none" visibility="hidden"></rect></g></svg></g></svg>